<?xml version="1.0" standalone="no"?><!DOCTYPE svg PUBLIC "-//W3C//DTD SVG 1.1//EN" "http://www.w3.org/Graphics/SVG/1.1/DTD/svg11.dtd"><svg t="1540376859054" class="icon" style="" viewBox="0 0 1024 1024" version="1.1" xmlns="http://www.w3.org/2000/svg" p-id="2250" xmlns:xlink="http://www.w3.org/1999/xlink" width="200" height="200"><defs><style type="text/css"></style></defs><path d="M146.285714 749.714286v109.714285c0 9.728-8.557714 18.285714-18.285714 18.285715h-109.714286a18.797714 18.797714 0 0 1-18.285714-18.285715v-109.714285c0-9.728 8.557714-18.285714 18.285714-18.285715h109.714286c9.728 0 18.285714 8.557714 18.285714 18.285715z m0-219.428572v109.714286c0 9.728-8.557714 18.285714-18.285714 18.285714h-109.714286a18.797714 18.797714 0 0 1-18.285714-18.285714v-109.714286c0-9.728 8.557714-18.285714 18.285714-18.285714h109.714286c9.728 0 18.285714 8.557714 18.285714 18.285714z m0-219.428571v109.714286c0 9.728-8.557714 18.285714-18.285714 18.285714h-109.714286a18.797714 18.797714 0 0 1-18.285714-18.285714v-109.714286c0-9.728 8.557714-18.285714 18.285714-18.285714h109.714286c9.728 0 18.285714 8.557714 18.285714 18.285714z m877.714286 438.857143v109.714285c0 9.728-8.557714 18.285714-18.285714 18.285715h-768a18.797714 18.797714 0 0 1-18.285715-18.285715v-109.714285c0-9.728 8.557714-18.285714 18.285715-18.285715h768c9.728 0 18.285714 8.557714 18.285714 18.285715zM146.285714 91.428571v109.714286c0 9.728-8.557714 18.285714-18.285714 18.285714h-109.714286a18.797714 18.797714 0 0 1-18.285714-18.285714v-109.714286c0-9.728 8.557714-18.285714 18.285714-18.285714h109.714286c9.728 0 18.285714 8.557714 18.285714 18.285714z m877.714286 438.857143v109.714286c0 9.728-8.557714 18.285714-18.285714 18.285714h-768a18.797714 18.797714 0 0 1-18.285715-18.285714v-109.714286c0-9.728 8.557714-18.285714 18.285715-18.285714h768c9.728 0 18.285714 8.557714 18.285714 18.285714z m0-219.428571v109.714286c0 9.728-8.557714 18.285714-18.285714 18.285714h-768a18.797714 18.797714 0 0 1-18.285715-18.285714v-109.714286c0-9.728 8.557714-18.285714 18.285715-18.285714h768c9.728 0 18.285714 8.557714 18.285714 18.285714z m0-219.428572v109.714286c0 9.728-8.557714 18.285714-18.285714 18.285714h-768a18.797714 18.797714 0 0 1-18.285715-18.285714v-109.714286c0-9.728 8.557714-18.285714 18.285715-18.285714h768c9.728 0 18.285714 8.557714 18.285714 18.285714z" fill="" p-id="2251"></path></svg>